<mxfile host="app.diagrams.net" agent="Mozilla/5.0 (Macintosh; Intel Mac OS X 10_15_7) AppleWebKit/537.36 (KHTML, like Gecko) Chrome/130.0.0.0 Safari/537.36" version="24.8.6">
  <diagram id="C5RBs43oDa-KdzZeNtuy" name="Page-1">
    <mxGraphModel dx="1026" dy="620" grid="1" gridSize="10" guides="1" tooltips="1" connect="1" arrows="1" fold="1" page="1" pageScale="1" pageWidth="827" pageHeight="1169" math="0" shadow="0">
      <root>
        <mxCell id="WIyWlLk6GJQsqaUBKTNV-0" />
        <mxCell id="WIyWlLk6GJQsqaUBKTNV-1" parent="WIyWlLk6GJQsqaUBKTNV-0" />
        <mxCell id="rH_FkeByn5BPKR6QTNed-10" value="" style="edgeStyle=orthogonalEdgeStyle;rounded=0;orthogonalLoop=1;jettySize=auto;html=1;" edge="1" parent="WIyWlLk6GJQsqaUBKTNV-1" source="rH_FkeByn5BPKR6QTNed-0" target="rH_FkeByn5BPKR6QTNed-1">
          <mxGeometry relative="1" as="geometry" />
        </mxCell>
        <mxCell id="rH_FkeByn5BPKR6QTNed-0" value="Start" style="ellipse;whiteSpace=wrap;html=1;" vertex="1" parent="WIyWlLk6GJQsqaUBKTNV-1">
          <mxGeometry x="330" y="60" width="120" height="80" as="geometry" />
        </mxCell>
        <mxCell id="rH_FkeByn5BPKR6QTNed-3" value="" style="edgeStyle=orthogonalEdgeStyle;rounded=0;orthogonalLoop=1;jettySize=auto;html=1;" edge="1" parent="WIyWlLk6GJQsqaUBKTNV-1" source="rH_FkeByn5BPKR6QTNed-1" target="rH_FkeByn5BPKR6QTNed-2">
          <mxGeometry relative="1" as="geometry" />
        </mxCell>
        <mxCell id="rH_FkeByn5BPKR6QTNed-1" value="Nhập a,b" style="shape=parallelogram;perimeter=parallelogramPerimeter;whiteSpace=wrap;html=1;fixedSize=1;" vertex="1" parent="WIyWlLk6GJQsqaUBKTNV-1">
          <mxGeometry x="330" y="170" width="120" height="60" as="geometry" />
        </mxCell>
        <mxCell id="rH_FkeByn5BPKR6QTNed-5" value="" style="edgeStyle=orthogonalEdgeStyle;rounded=0;orthogonalLoop=1;jettySize=auto;html=1;" edge="1" parent="WIyWlLk6GJQsqaUBKTNV-1" source="rH_FkeByn5BPKR6QTNed-2" target="rH_FkeByn5BPKR6QTNed-4">
          <mxGeometry relative="1" as="geometry" />
        </mxCell>
        <mxCell id="rH_FkeByn5BPKR6QTNed-12" value="" style="edgeStyle=orthogonalEdgeStyle;rounded=0;orthogonalLoop=1;jettySize=auto;html=1;" edge="1" parent="WIyWlLk6GJQsqaUBKTNV-1" source="rH_FkeByn5BPKR6QTNed-2" target="rH_FkeByn5BPKR6QTNed-11">
          <mxGeometry relative="1" as="geometry" />
        </mxCell>
        <mxCell id="rH_FkeByn5BPKR6QTNed-15" value="" style="edgeStyle=orthogonalEdgeStyle;rounded=0;orthogonalLoop=1;jettySize=auto;html=1;" edge="1" parent="WIyWlLk6GJQsqaUBKTNV-1" source="rH_FkeByn5BPKR6QTNed-2" target="rH_FkeByn5BPKR6QTNed-14">
          <mxGeometry relative="1" as="geometry" />
        </mxCell>
        <mxCell id="rH_FkeByn5BPKR6QTNed-2" value="a=/ 0" style="rhombus;whiteSpace=wrap;html=1;" vertex="1" parent="WIyWlLk6GJQsqaUBKTNV-1">
          <mxGeometry x="350" y="290" width="80" height="80" as="geometry" />
        </mxCell>
        <mxCell id="rH_FkeByn5BPKR6QTNed-20" value="" style="edgeStyle=orthogonalEdgeStyle;rounded=0;orthogonalLoop=1;jettySize=auto;html=1;" edge="1" parent="WIyWlLk6GJQsqaUBKTNV-1" source="rH_FkeByn5BPKR6QTNed-4" target="rH_FkeByn5BPKR6QTNed-18">
          <mxGeometry relative="1" as="geometry" />
        </mxCell>
        <mxCell id="rH_FkeByn5BPKR6QTNed-4" value="x=-b/a" style="whiteSpace=wrap;html=1;" vertex="1" parent="WIyWlLk6GJQsqaUBKTNV-1">
          <mxGeometry x="330" y="420" width="120" height="60" as="geometry" />
        </mxCell>
        <mxCell id="rH_FkeByn5BPKR6QTNed-6" value="Pt vô số nghiệm" style="whiteSpace=wrap;html=1;" vertex="1" parent="WIyWlLk6GJQsqaUBKTNV-1">
          <mxGeometry x="490" y="420" width="120" height="60" as="geometry" />
        </mxCell>
        <mxCell id="rH_FkeByn5BPKR6QTNed-8" value="Flase" style="text;html=1;align=center;verticalAlign=middle;resizable=0;points=[];autosize=1;strokeColor=none;fillColor=none;" vertex="1" parent="WIyWlLk6GJQsqaUBKTNV-1">
          <mxGeometry x="450" y="300" width="50" height="30" as="geometry" />
        </mxCell>
        <mxCell id="rH_FkeByn5BPKR6QTNed-9" value="True" style="text;html=1;align=center;verticalAlign=middle;resizable=0;points=[];autosize=1;strokeColor=none;fillColor=none;" vertex="1" parent="WIyWlLk6GJQsqaUBKTNV-1">
          <mxGeometry x="340" y="380" width="50" height="30" as="geometry" />
        </mxCell>
        <mxCell id="rH_FkeByn5BPKR6QTNed-13" value="" style="edgeStyle=orthogonalEdgeStyle;rounded=0;orthogonalLoop=1;jettySize=auto;html=1;" edge="1" parent="WIyWlLk6GJQsqaUBKTNV-1" source="rH_FkeByn5BPKR6QTNed-11" target="rH_FkeByn5BPKR6QTNed-6">
          <mxGeometry relative="1" as="geometry" />
        </mxCell>
        <mxCell id="rH_FkeByn5BPKR6QTNed-11" value="a= 0&lt;div&gt;&lt;span style=&quot;background-color: initial;&quot;&gt;b=0&lt;/span&gt;&lt;/div&gt;" style="rhombus;whiteSpace=wrap;html=1;" vertex="1" parent="WIyWlLk6GJQsqaUBKTNV-1">
          <mxGeometry x="510" y="290" width="80" height="80" as="geometry" />
        </mxCell>
        <mxCell id="rH_FkeByn5BPKR6QTNed-17" value="" style="edgeStyle=orthogonalEdgeStyle;rounded=0;orthogonalLoop=1;jettySize=auto;html=1;" edge="1" parent="WIyWlLk6GJQsqaUBKTNV-1" source="rH_FkeByn5BPKR6QTNed-14" target="rH_FkeByn5BPKR6QTNed-16">
          <mxGeometry relative="1" as="geometry" />
        </mxCell>
        <mxCell id="rH_FkeByn5BPKR6QTNed-14" value="a= 0&lt;div&gt;b=/0&lt;/div&gt;" style="rhombus;whiteSpace=wrap;html=1;" vertex="1" parent="WIyWlLk6GJQsqaUBKTNV-1">
          <mxGeometry x="190" y="290" width="80" height="80" as="geometry" />
        </mxCell>
        <mxCell id="rH_FkeByn5BPKR6QTNed-16" value="Pt vô nghiệm" style="whiteSpace=wrap;html=1;" vertex="1" parent="WIyWlLk6GJQsqaUBKTNV-1">
          <mxGeometry x="170" y="420" width="120" height="60" as="geometry" />
        </mxCell>
        <mxCell id="rH_FkeByn5BPKR6QTNed-18" value="End" style="ellipse;whiteSpace=wrap;html=1;" vertex="1" parent="WIyWlLk6GJQsqaUBKTNV-1">
          <mxGeometry x="330" y="540" width="120" height="80" as="geometry" />
        </mxCell>
        <mxCell id="rH_FkeByn5BPKR6QTNed-19" value="" style="endArrow=classic;html=1;rounded=0;exitX=0.5;exitY=1;exitDx=0;exitDy=0;entryX=0;entryY=0.5;entryDx=0;entryDy=0;" edge="1" parent="WIyWlLk6GJQsqaUBKTNV-1" source="rH_FkeByn5BPKR6QTNed-16" target="rH_FkeByn5BPKR6QTNed-18">
          <mxGeometry width="50" height="50" relative="1" as="geometry">
            <mxPoint x="360" y="390" as="sourcePoint" />
            <mxPoint x="410" y="340" as="targetPoint" />
          </mxGeometry>
        </mxCell>
        <mxCell id="rH_FkeByn5BPKR6QTNed-21" value="" style="endArrow=classic;html=1;rounded=0;exitX=0.5;exitY=1;exitDx=0;exitDy=0;entryX=1;entryY=0.5;entryDx=0;entryDy=0;" edge="1" parent="WIyWlLk6GJQsqaUBKTNV-1" source="rH_FkeByn5BPKR6QTNed-6" target="rH_FkeByn5BPKR6QTNed-18">
          <mxGeometry width="50" height="50" relative="1" as="geometry">
            <mxPoint x="360" y="390" as="sourcePoint" />
            <mxPoint x="410" y="340" as="targetPoint" />
          </mxGeometry>
        </mxCell>
      </root>
    </mxGraphModel>
  </diagram>
</mxfile>
